<mxfile host="65bd71144e" modified="2020-12-21T05:43:13.248Z" agent="5.0 (Macintosh; Intel Mac OS X 10_15_7) AppleWebKit/537.36 (KHTML, like Gecko) Code/1.49.0 Chrome/83.0.4103.122 Electron/9.2.1 Safari/537.36" etag="XqFcpkmf65LccfNQVEeW" version="13.10.0" type="embed">
    <diagram id="2u54URwKtn0oQCWYSAu8" name="ページ1">
        <mxGraphModel dx="606" dy="985" grid="1" gridSize="10" guides="1" tooltips="1" connect="1" arrows="1" fold="1" page="1" pageScale="1" pageWidth="827" pageHeight="1169" math="0" shadow="0">
            <root>
                <mxCell id="0"/>
                <mxCell id="1" parent="0"/>
                <mxCell id="yAP5g8DO2VciCxcq5tfG-16" value="usersテーブル" style="swimlane;childLayout=stackLayout;horizontal=1;startSize=30;horizontalStack=0;rounded=1;fontSize=14;fontStyle=0;strokeWidth=2;resizeParent=0;resizeLast=1;shadow=0;dashed=0;align=center;" parent="1" vertex="1">
                    <mxGeometry x="30" y="380" width="160" height="170" as="geometry"/>
                </mxCell>
                <mxCell id="yAP5g8DO2VciCxcq5tfG-17" value="buyer_name&#10;email&#10;password&#10;password_confirmation&#10;chinese_characters_name&#10;katakana_name&#10;dob" style="align=left;strokeColor=none;fillColor=none;spacingLeft=4;fontSize=12;verticalAlign=top;resizable=0;rotatable=0;part=1;" parent="yAP5g8DO2VciCxcq5tfG-16" vertex="1">
                    <mxGeometry y="30" width="160" height="140" as="geometry"/>
                </mxCell>
                <mxCell id="yAP5g8DO2VciCxcq5tfG-20" value="itemsテーブル" style="swimlane;childLayout=stackLayout;horizontal=1;startSize=30;horizontalStack=0;rounded=1;fontSize=14;fontStyle=0;strokeWidth=2;resizeParent=0;resizeLast=1;shadow=0;dashed=0;align=center;" parent="1" vertex="1">
                    <mxGeometry x="560" y="380" width="160" height="170" as="geometry"/>
                </mxCell>
                <mxCell id="yAP5g8DO2VciCxcq5tfG-21" value="seller_name&#10;price&#10;category&#10;item_state&#10;shipping_charges&#10;shipping_area&#10;shipping_date&#10;user_id" style="align=left;strokeColor=none;fillColor=none;spacingLeft=4;fontSize=12;verticalAlign=top;resizable=0;rotatable=0;part=1;" parent="yAP5g8DO2VciCxcq5tfG-20" vertex="1">
                    <mxGeometry y="30" width="160" height="140" as="geometry"/>
                </mxCell>
                <mxCell id="yAP5g8DO2VciCxcq5tfG-23" value="address" style="swimlane;childLayout=stackLayout;horizontal=1;startSize=30;horizontalStack=0;rounded=1;fontSize=14;fontStyle=0;strokeWidth=2;resizeParent=0;resizeLast=1;shadow=0;dashed=0;align=center;" parent="1" vertex="1">
                    <mxGeometry x="270" y="840" width="160" height="170" as="geometry"/>
                </mxCell>
                <mxCell id="yAP5g8DO2VciCxcq5tfG-24" value="postal&#10;prefectures&#10;municipality&#10;address&#10;building&#10;phone&#10;user_id&#10;items_id" style="align=left;strokeColor=none;fillColor=none;spacingLeft=4;fontSize=12;verticalAlign=top;resizable=0;rotatable=0;part=1;" parent="yAP5g8DO2VciCxcq5tfG-23" vertex="1">
                    <mxGeometry y="30" width="160" height="140" as="geometry"/>
                </mxCell>
                <mxCell id="yAP5g8DO2VciCxcq5tfG-32" value="purchase" style="swimlane;childLayout=stackLayout;horizontal=1;startSize=30;horizontalStack=0;rounded=1;fontSize=14;fontStyle=0;strokeWidth=2;resizeParent=0;resizeLast=1;shadow=0;dashed=0;align=center;" parent="1" vertex="1">
                    <mxGeometry x="260" y="600" width="160" height="150" as="geometry"/>
                </mxCell>
                <mxCell id="yAP5g8DO2VciCxcq5tfG-33" value="price&#10;cregit_card&#10;expiration_date&#10;user_id&#10;items_id" style="align=left;strokeColor=none;fillColor=none;spacingLeft=4;fontSize=12;verticalAlign=top;resizable=0;rotatable=0;part=1;" parent="yAP5g8DO2VciCxcq5tfG-32" vertex="1">
                    <mxGeometry y="30" width="160" height="120" as="geometry"/>
                </mxCell>
                <mxCell id="yAP5g8DO2VciCxcq5tfG-40" value="" style="edgeStyle=entityRelationEdgeStyle;fontSize=12;html=1;endArrow=ERoneToMany;entryX=0;entryY=0.5;entryDx=0;entryDy=0;" parent="1" source="yAP5g8DO2VciCxcq5tfG-17" target="yAP5g8DO2VciCxcq5tfG-21" edge="1">
                    <mxGeometry width="100" height="100" relative="1" as="geometry">
                        <mxPoint x="450" y="580" as="sourcePoint"/>
                        <mxPoint x="550" y="480" as="targetPoint"/>
                    </mxGeometry>
                </mxCell>
                <mxCell id="yAP5g8DO2VciCxcq5tfG-43" value="" style="edgeStyle=entityRelationEdgeStyle;fontSize=12;html=1;endArrow=ERoneToMany;exitX=0.444;exitY=1.019;exitDx=0;exitDy=0;exitPerimeter=0;entryX=-0.031;entryY=0.43;entryDx=0;entryDy=0;entryPerimeter=0;" parent="1" source="yAP5g8DO2VciCxcq5tfG-17" target="yAP5g8DO2VciCxcq5tfG-33" edge="1">
                    <mxGeometry width="100" height="100" relative="1" as="geometry">
                        <mxPoint x="360" y="740" as="sourcePoint"/>
                        <mxPoint x="460" y="640" as="targetPoint"/>
                    </mxGeometry>
                </mxCell>
                <mxCell id="yAP5g8DO2VciCxcq5tfG-45" value="" style="edgeStyle=entityRelationEdgeStyle;fontSize=12;html=1;endArrow=ERoneToMany;exitX=1.019;exitY=0.855;exitDx=0;exitDy=0;exitPerimeter=0;" parent="1" source="yAP5g8DO2VciCxcq5tfG-33" target="yAP5g8DO2VciCxcq5tfG-24" edge="1">
                    <mxGeometry width="100" height="100" relative="1" as="geometry">
                        <mxPoint x="360" y="860" as="sourcePoint"/>
                        <mxPoint x="560" y="810" as="targetPoint"/>
                    </mxGeometry>
                </mxCell>
                <mxCell id="yAP5g8DO2VciCxcq5tfG-46" value="" style="edgeStyle=entityRelationEdgeStyle;fontSize=12;html=1;endArrow=ERmandOne;startArrow=ERmandOne;exitX=0.25;exitY=1;exitDx=0;exitDy=0;entryX=0;entryY=0.5;entryDx=0;entryDy=0;" parent="1" source="yAP5g8DO2VciCxcq5tfG-17" target="yAP5g8DO2VciCxcq5tfG-24" edge="1">
                    <mxGeometry width="100" height="100" relative="1" as="geometry">
                        <mxPoint x="360" y="820" as="sourcePoint"/>
                        <mxPoint x="460" y="720" as="targetPoint"/>
                    </mxGeometry>
                </mxCell>
                <mxCell id="2" value="purchase_items" style="swimlane;childLayout=stackLayout;horizontal=1;startSize=30;horizontalStack=0;rounded=1;fontSize=14;fontStyle=0;strokeWidth=2;resizeParent=0;resizeLast=1;shadow=0;dashed=0;align=center;" vertex="1" parent="1">
                    <mxGeometry x="550" y="760" width="160" height="120" as="geometry"/>
                </mxCell>
                <mxCell id="3" value="user_id&#10;item_id&#10;" style="align=left;strokeColor=none;fillColor=none;spacingLeft=4;fontSize=12;verticalAlign=top;resizable=0;rotatable=0;part=1;" vertex="1" parent="2">
                    <mxGeometry y="30" width="160" height="90" as="geometry"/>
                </mxCell>
                <mxCell id="6" value="" style="edgeStyle=entityRelationEdgeStyle;fontSize=12;html=1;endArrow=ERoneToMany;exitX=1.003;exitY=0.403;exitDx=0;exitDy=0;exitPerimeter=0;" edge="1" parent="1" source="yAP5g8DO2VciCxcq5tfG-33" target="3">
                    <mxGeometry width="100" height="100" relative="1" as="geometry">
                        <mxPoint x="490" y="790" as="sourcePoint"/>
                        <mxPoint x="530" y="678" as="targetPoint"/>
                    </mxGeometry>
                </mxCell>
                <mxCell id="7" value="" style="edgeStyle=entityRelationEdgeStyle;fontSize=12;html=1;endArrow=ERoneToMany;exitX=0.75;exitY=1;exitDx=0;exitDy=0;" edge="1" parent="1" source="yAP5g8DO2VciCxcq5tfG-21" target="3">
                    <mxGeometry width="100" height="100" relative="1" as="geometry">
                        <mxPoint x="682" y="550" as="sourcePoint"/>
                        <mxPoint x="590" y="690" as="targetPoint"/>
                    </mxGeometry>
                </mxCell>
                <mxCell id="9" value="" style="edgeStyle=entityRelationEdgeStyle;fontSize=12;html=1;endArrow=ERmandOne;startArrow=ERmandOne;entryX=0.25;entryY=1;entryDx=0;entryDy=0;exitX=1.026;exitY=0.185;exitDx=0;exitDy=0;exitPerimeter=0;" edge="1" parent="1" source="yAP5g8DO2VciCxcq5tfG-33" target="yAP5g8DO2VciCxcq5tfG-21">
                    <mxGeometry width="100" height="100" relative="1" as="geometry">
                        <mxPoint x="470" y="840" as="sourcePoint"/>
                        <mxPoint x="570" y="740" as="targetPoint"/>
                    </mxGeometry>
                </mxCell>
            </root>
        </mxGraphModel>
    </diagram>
</mxfile>